<?xml version="1.0" encoding="UTF-8"?>
<!DOCTYPE svg PUBLIC "-//W3C//DTD SVG 1.1//EN" "http://www.w3.org/Graphics/SVG/1.1/DTD/svg11.dtd">
<!-- Creator: CorelDRAW 2020 (64-Bit) -->
<svg xmlns="http://www.w3.org/2000/svg" xml:space="preserve" width="70.3756mm" height="54.4174mm" version="1.1" style="shape-rendering:geometricPrecision; text-rendering:geometricPrecision; image-rendering:optimizeQuality; fill-rule:evenodd; clip-rule:evenodd"
viewBox="0 0 1423.47 1100.69"
 xmlns:xlink="http://www.w3.org/1999/xlink"
 xmlns:xodm="http://www.corel.com/coreldraw/odm/2003">
 <defs>
  <style type="text/css">
   <![CDATA[
    .str0 {stroke:#EC767B;stroke-width:1.54;stroke-miterlimit:22.9256}
    .fil16 {fill:#FEFEFE;fill-rule:nonzero}
    .fil2 {fill:#FCE9DB;fill-rule:nonzero}
    .fil12 {fill:#F9D6DB;fill-rule:nonzero}
    .fil18 {fill:#F7BC8B;fill-rule:nonzero}
    .fil1 {fill:#F4A968;fill-rule:nonzero}
    .fil3 {fill:#F29B5A;fill-rule:nonzero}
    .fil15 {fill:#F2994E;fill-rule:nonzero}
    .fil28 {fill:#EC767B;fill-rule:nonzero}
    .fil26 {fill:#EB8020;fill-rule:nonzero}
    .fil0 {fill:#F7F3EE;fill-rule:nonzero}
    .fil33 {fill:#F0B27E;fill-rule:nonzero}
    .fil19 {fill:#E48E62;fill-rule:nonzero}
    .fil14 {fill:#D9813B;fill-rule:nonzero}
    .fil35 {fill:#CB976B;fill-rule:nonzero}
    .fil8 {fill:#B6BADA;fill-rule:nonzero}
    .fil13 {fill:#601F2C;fill-rule:nonzero}
    .fil9 {fill:#9AA3D1;fill-rule:nonzero}
    .fil17 {fill:#493940;fill-rule:nonzero}
    .fil34 {fill:#493940;fill-rule:nonzero}
    .fil11 {fill:#607EBD;fill-rule:nonzero}
    .fil4 {fill:#4969B0;fill-rule:nonzero}
    .fil21 {fill:#4969B0;fill-rule:nonzero}
    .fil29 {fill:#513D6E;fill-rule:nonzero}
    .fil25 {fill:#504D9B;fill-rule:nonzero}
    .fil31 {fill:#355BA7;fill-rule:nonzero}
    .fil7 {fill:#3C52A0;fill-rule:nonzero}
    .fil32 {fill:#3C356C;fill-rule:nonzero}
    .fil5 {fill:#384294;fill-rule:nonzero}
    .fil24 {fill:#393C80;fill-rule:nonzero}
    .fil27 {fill:#353979;fill-rule:nonzero}
    .fil30 {fill:#1F4C9C;fill-rule:nonzero}
    .fil20 {fill:#1F4C9C;fill-rule:nonzero}
    .fil10 {fill:#26408E;fill-rule:nonzero}
    .fil6 {fill:#293A72;fill-rule:nonzero}
    .fil22 {fill:#292E5B;fill-rule:nonzero}
    .fil23 {fill:#252747;fill-rule:nonzero}
   ]]>
  </style>
 </defs>
 <g id="Layer_x0020_1">
  <metadata id="CorelCorpID_0Corel-Layer"/>
  <g id="_2096215238064">
   <g>
    <path class="fil0" d="M848.33 226.08c-18.07,-8.17 -30.66,7.39 -30.66,7.39 0,0 1.14,-18.19 -15.35,-21.6 -16.49,-3.41 -22.74,15.92 -22.74,15.92 0,0 -12.51,-27.85 -33.54,-19.33 -21.03,8.53 -13.07,38.66 -13.07,38.66 0,0 -9.66,-9.1 -19.33,-8.53 -9.66,0.57 -11.37,23.85 -11.37,23.85l178.11 0c0,0 -8.15,-25.55 -32.05,-36.35z"/>
    <path class="fil0" d="M1391.43 489.51c-18.07,-8.17 -30.67,7.39 -30.67,7.39 0,0 1.14,-18.19 -15.35,-21.6 -16.48,-3.41 -22.74,15.91 -22.74,15.91 0,0 -12.5,-27.85 -33.54,-19.33 -21.03,8.53 -13.07,38.66 -13.07,38.66 0,0 -9.66,-9.1 -19.33,-8.53 -9.66,0.57 -11.37,23.84 -11.37,23.84l178.11 0c0,0 -8.15,-25.55 -32.05,-36.35z"/>
    <path class="fil0" d="M851.21 381.87c0,0 -298.89,-217.12 -409.12,-82.57 -61.28,74.8 97.52,184.13 -46.57,286.43 -144.1,102.3 -249.01,126.54 -215.01,242.92 35.62,121.96 328.47,53.7 528.1,-48.54 114.45,-58.62 199.21,-15.39 277.43,27.83 58.21,32.17 112.81,64.33 173.33,54.54 141.86,-22.97 186.77,-272.43 -308.16,-480.61z"/>
    <path class="fil0" d="M146.06 476.97c-18.07,-8.17 -30.67,7.39 -30.67,7.39 0,0 1.14,-18.19 -15.35,-21.6 -16.48,-3.41 -22.74,15.92 -22.74,15.92 0,0 -12.5,-27.85 -33.54,-19.33 -21.03,8.53 -13.07,38.65 -13.07,38.65 0,0 -9.66,-9.09 -19.33,-8.53 -9.66,0.57 -11.37,23.84 -11.37,23.84l178.11 0c0,0 -8.15,-25.55 -32.05,-36.35z"/>
    <path class="fil0" d="M1146.48 273.77c0,0 6.91,-19.92 23.13,-24.93 16.22,-5.01 25.1,14.32 25.1,14.32 0,0 -3.95,-28.04 17.27,-31.83 21.22,-3.79 29.56,23.5 29.56,23.5 0,0 6.06,-11.73 19.14,-3.21 13.07,8.52 25.96,20.64 25.96,20.64l-140.15 1.52z"/>
    <path class="fil0" d="M199.45 261.45c0,0 6.91,-19.92 23.13,-24.93 16.22,-5.01 25.09,14.32 25.09,14.32 0,0 -3.95,-28.04 17.28,-31.83 21.22,-3.79 29.56,23.5 29.56,23.5 0,0 6.06,-11.73 19.14,-3.21 13.07,8.52 25.96,20.64 25.96,20.64l-140.16 1.52z"/>
   </g>
   <g>
    <path class="fil1" d="M497.22 407.13c1.12,-10.33 -4.18,-12.26 -4.18,-12.26 0,0 -104.55,-23.16 -113.39,-26.32 -8.84,-3.16 -82.3,-85.74 -82.3,-85.74 0,0 -28.06,-34.22 -52.36,-27.84 -21.12,5.54 -29.91,21.51 -33.29,36.91 -4.03,18.36 3.77,37.29 19.4,47.72 35.08,23.43 105.33,69.64 122.08,75.26 37.28,12.51 138.98,6.26 138.98,6.26 0,0 4.17,-5.88 5.05,-13.99z"/>
    <path class="fil2" d="M353.37 414.92c-0.01,-0 -0.01,-0 -0.02,-0.01 0.01,0 0.01,0 0.02,0.01zm-0.09 -0.03c-0.03,-0.01 -0.06,-0.02 -0.09,-0.03 -6.37,-2.14 -20.5,-10.16 -37.49,-20.56l0 0c16.99,10.41 31.11,18.42 37.49,20.56 0.03,0.01 0.06,0.02 0.09,0.03zm2.06 -68.98c-1.13,-1.17 -2.28,-2.37 -3.43,-3.59l0 -0c1.16,1.22 2.31,2.42 3.43,3.59 0,0 0,0 0,0z"/>
    <path class="fil3" d="M381.22 420.23c-10.88,-1.19 -20.58,-2.89 -27.85,-5.31 -0.01,-0 -0.01,-0 -0.02,-0.01 -0.02,-0.01 -0.04,-0.01 -0.07,-0.02 -0.03,-0.01 -0.06,-0.02 -0.09,-0.03 -6.37,-2.14 -20.5,-10.16 -37.49,-20.56 -0.35,-4.14 -0.72,-8.35 -1.09,-12.57 9.77,-13.08 22.62,-23.84 33.75,-35.73 1.17,-1.24 2.37,-2.43 3.55,-3.67 1.16,1.22 2.31,2.42 3.43,3.59 -0.23,20.18 8.99,43.17 16.38,58.13 2.82,5.7 6.01,11.09 9.5,16.19z"/>
    <path class="fil4" d="M348.36 345.99c1.17,-1.24 2.37,-2.44 3.55,-3.67 -24.06,-25.23 -54.55,-59.51 -54.55,-59.51 0,0 -28.06,-34.22 -52.36,-27.84 -21.12,5.54 -29.91,21.51 -33.29,36.91 -4.03,18.36 3.78,37.29 19.4,47.73 20.01,13.36 51.45,34.13 77.89,50.56 9.99,-17.12 25.94,-29.82 39.36,-44.17z"/>
    <path class="fil5" d="M283.71 991.82c0.25,-1 36.05,-0.99 36.05,-0.99 0,0 16.3,13.71 33.2,22.43 18.87,9.73 41.08,8.44 45.91,21.3 4.83,12.85 -1.95,13.18 -1.95,13.18 0,0 -102.85,1.56 -115.67,-3.29 0,0 -7.53,-13.7 2.45,-52.63z"/>
    <path class="fil5" d="M309.24 990.88c5.9,-0.05 10.52,-0.05 10.52,-0.05 0,0 16.3,13.71 33.2,22.43 18.73,9.66 40.72,8.48 45.78,21.02 -40.85,14.99 -77.1,-8.84 -89.5,-43.4z"/>
    <path class="fil6" d="M218.72 587.51c0,0 36.73,144.15 42.74,175.86 6.01,31.71 1.57,79.96 2.72,106.18 2.52,57.46 16.69,120.69 16.69,120.69 -1.43,14.89 53.92,22.34 55.35,7.45 0,0 -4.33,-14.66 -6.36,-100.55 -1.01,-42.88 3.85,-95.22 7.01,-153.03 3.16,-57.81 -16.74,-203.7 -16.74,-203.7 0,0 -27.63,-36.99 -64.63,-24.78 -37,12.22 -36.79,71.88 -36.79,71.88z"/>
    <path class="fil5" d="M170.1 994.56c0,0 9.26,12.15 38.47,6.94 0,0 9.26,26.61 22.27,33.26 13.02,6.65 47.73,19.38 49.46,30.95 1.74,11.57 -20.83,14.75 -46.86,12.72 -26.03,-2.03 -65.08,-22.27 -72.31,-29.79 -7.23,-7.52 8.96,-54.08 8.96,-54.08z"/>
    <path class="fil5" d="M260.78 1062.77c-41.92,2.52 -76.59,-25.22 -78.39,-61.49 5.99,1.59 14.46,2.32 26.18,0.22 0,0 9.26,26.61 22.27,33.26 8.64,4.41 26.78,11.51 38.55,19.16 -0.09,0.39 -0.17,0.78 -0.25,1.18 -0.82,4.14 -4.14,7.42 -8.36,7.67z"/>
    <path class="fil7" d="M183.76 595.31c0.07,3.36 5.14,144.15 -2.75,189.84 -7.89,45.69 -20.92,63.91 -18.96,189.98l1.91 27.31c-2.63,13.18 49.09,23.5 51.72,10.31 0,0 -4.91,-49.59 9.33,-108.09 14.24,-58.51 65.44,-218.08 70.71,-312.73 5.14,-92.21 -113.61,-79.91 -111.96,3.37z"/>
    <path class="fil8" d="M183.83 597.27c-0.02,-0.68 -0.04,-1.2 -0.05,-1.54 0.01,0.34 0.03,0.86 0.05,1.54l0 0z"/>
    <path class="fil9" d="M184.44 618.65c-0.26,-10.34 -0.51,-17.95 -0.61,-21.39l0 0c0.11,3.43 0.35,11.04 0.61,21.39z"/>
    <path class="fil10" d="M228.19 625.27c-14.24,0 -28.83,-1.64 -43.7,-4.53 -0.02,-0.71 -0.04,-1.4 -0.05,-2.08 -0.26,-10.35 -0.51,-17.96 -0.61,-21.39 -0.02,-0.68 -0.04,-1.2 -0.05,-1.54 0,-0 0,-0.01 0,-0.01 0,-0 0,-0.01 0,-0.01 -0,-0.2 -0.01,-0.33 -0.01,-0.4 -0,-0.18 -0,-0.35 -0.01,-0.53 13.33,3.88 34.13,5.85 56.16,5.85 18.92,0 38.75,-1.45 55.54,-4.4 -0.32,4.7 -0.76,9.56 -1.28,14.55 -20.97,10.22 -43.03,14.49 -65.98,14.49z"/>
    <path class="fil11" d="M237.78 235.3c0,0 -32.14,-3.03 -63.67,35.17 -11.69,14.17 -22.15,46.2 -15.44,80.1 3.28,16.58 9.93,44.65 15.88,69.03 7.33,30.06 8.06,61.33 2.24,91.72 -4.05,21.17 -9.13,66.32 -7.83,73.59 4.23,23.7 169.95,21.08 168.25,-11.09 -1.69,-32.16 -15.89,-113.08 -15.89,-113.1 -1.74,-9.92 -9.43,-138.37 -18.03,-164.18 -11.53,-34.57 -20.08,-63.34 -65.5,-61.25z"/>
    <path class="fil12" d="M320.5 453.09c-0.25,-2.78 -0.53,-6.19 -0.85,-10.1l0 0c0.32,3.92 0.6,7.31 0.85,10.1l-0 0zm-161.83 -102.51l0 0c-0.01,-0.07 -0.02,-0.13 -0.04,-0.19 0.01,0.06 0.02,0.13 0.04,0.19l0 0zm-0.08 -0.39l0 0zm-0.04 -0.19l0 -0 0 0zm-0.03 -0.19c0,-0 0,-0.01 0,-0.01 0,0 0,0 0,0.01zm-0.03 -0.19c-0,-0 -0,-0.01 -0,-0.01 0,0 0,0.01 0,0.01zm-0.04 -0.2l0 -0c0,0 0,0 0,0z"/>
    <path class="fil4" d="M313.25 453.19c-11.91,0 -23.86,-0.73 -35.38,-1.25 -24.67,-1.11 -49.21,-6.55 -71.23,-17.95 -11.82,-6.12 -23.65,-14.57 -34.58,-24.6 -5.23,-21.66 -10.57,-44.52 -13.4,-58.82l0 0c-0.01,-0.07 -0.02,-0.13 -0.04,-0.19 -0.01,-0.07 -0.02,-0.13 -0.04,-0.19l0 0c-0.01,-0.06 -0.02,-0.12 -0.04,-0.19l0 -0c-0.01,-0.06 -0.02,-0.12 -0.03,-0.18 0,-0 0,-0.01 0,-0.01 -0.01,-0.06 -0.02,-0.12 -0.03,-0.18 -0,-0 -0,-0.01 -0,-0.01 -0.01,-0.06 -0.02,-0.12 -0.04,-0.19 0,0 0,0 0,-0 -6.04,-32.33 3.42,-62.74 14.48,-77.4 22,23.39 41.64,48.01 62.05,72.81 20.71,25.16 43.45,48.61 63.8,74.05 6.71,8.39 13.42,16.71 20.87,24.11 0.32,3.91 0.6,7.32 0.85,10.1 -2.41,0.07 -4.82,0.1 -7.24,0.1z"/>
    <path class="fil13" d="M355.07 129.24c-7.94,-3.27 -12.94,5.22 -17.91,9.6 -2.9,2.56 -6.11,4.57 -9.52,6.16 10.88,-0.66 19.96,-1.96 24.01,-4.31 5.54,-3.22 6.7,-6.72 6.09,-9.78 -0.83,-0.68 -1.7,-1.27 -2.67,-1.67z"/>
    <polygon class="fil14" points="444.88,461.5 648.65,461.5 648.65,285.63 444.88,285.63 "/>
    <polygon class="fil15" points="495.52,461.5 648.65,461.5 648.65,285.63 495.52,285.63 "/>
    <polygon class="fil16" points="555.86,319.9 597.71,319.9 597.71,285.63 555.86,285.63 "/>
    <path class="fil16" d="M284.64 260.11c5.73,13.07 -2.64,28.08 -17.14,29.07 -7.24,0.49 -14.37,-2.29 -20.51,-6.16 -10.9,-6.87 -31.74,-20.69 -28.29,-36.07 1.5,-6.72 8.88,-10.32 15.64,-11.7 21.03,-4.27 41.42,4.58 50.3,24.85z"/>
    <path class="fil17" d="M232.42 226.23c0,0 -12.65,-14.59 -24.33,-39.7 -11.68,-25.11 -7.01,-61.18 25.59,-77.66 32.6,-16.48 64.03,-2.75 73.58,23.8 9.55,26.54 -12.06,62.83 -74.84,93.57z"/>
    <path class="fil18" d="M236.42 194.3c0,1.06 -9.55,37.61 -9.93,47.15 -0.96,24.59 48.5,46.51 50.86,26.27 0.72,-6.19 2,-36.46 2,-36.46l-42.94 -36.97z"/>
    <path class="fil19" d="M236.09 196.44c0,0 3.59,51.79 30.21,55.59 14.71,2.1 14.18,-34.62 14.18,-34.62 0,0 2.37,-35.96 -44.39,-20.96z"/>
    <path class="fil18" d="M253.24 116.87c0,0 30.71,-6.21 46.6,15.97 15.88,22.18 9.3,36.85 9.74,43.33 0.44,6.47 6.68,60.36 -16.43,64.14 -25.67,4.2 -48.65,-16.33 -55.9,-38.92 0,0 -2.81,-6.6 -3.19,-17.72 0,0 -22.05,-54.44 19.18,-66.81z"/>
    <path class="fil17" d="M278.93 176.05c0,2.18 -1.15,3.94 -2.58,3.94 -1.42,0 -2.58,-1.76 -2.58,-3.94 0,-2.17 1.15,-3.93 2.58,-3.93 1.43,0 2.58,1.76 2.58,3.93z"/>
    <path class="fil17" d="M302.07 173.17c0,2.17 -1.15,3.93 -2.58,3.93 -1.42,0 -2.57,-1.76 -2.57,-3.93 0,-2.18 1.15,-3.94 2.57,-3.94 1.43,0 2.58,1.76 2.58,3.94z"/>
    <path class="fil17" d="M279.11 163.89c-1.07,0.21 -2.19,0.29 -3.18,0.44 -1.01,0.12 -2,0.27 -2.97,0.62 -0.96,0.36 -1.93,0.8 -2.86,1.4 -0.49,0.26 -0.91,0.65 -1.42,0.94 -0.47,0.35 -0.9,0.74 -1.42,1.09l-0.14 0.1c-0.57,0.38 -1.34,0.22 -1.72,-0.34 -0.26,-0.39 -0.28,-0.87 -0.07,-1.26 0.63,-1.21 1.42,-2.39 2.45,-3.39 1.01,-1.03 2.26,-1.84 3.62,-2.48 1.38,-0.58 2.9,-0.95 4.42,-0.92 1.53,0.06 2.97,0.47 4.27,1.56 0.53,0.44 0.6,1.23 0.16,1.75l-0.71 0.43 -0.4 0.08z"/>
    <path class="fil17" d="M293.77 160.6c0.01,-1.29 0.97,-2.47 2.07,-3.03 1.12,-0.58 2.34,-0.67 3.45,-0.57 2.23,0.23 4.16,1.49 5.23,3.19 0.37,0.59 0.19,1.38 -0.4,1.75 -0.35,0.22 -0.75,0.24 -1.11,0.12l-0.14 -0.05c-1.43,-0.53 -2.71,-0.78 -3.85,-0.76 -0.57,-0.01 -1.06,0.13 -1.48,0.22 -0.44,0.1 -0.83,0.07 -1.6,0.28l-0.53 0.14c-0.7,0.19 -1.41,-0.23 -1.59,-0.92l-0.04 -0.35z"/>
    <path class="fil17" d="M301.53 125.6c-1.77,-3.52 -3.56,-6.81 -5.85,-9.75l-0.2 0.05c-4.43,1.21 -4.75,-2.71 -8.64,-5 -11.85,-6.97 -30.8,-10.02 -44.01,-5.84 -23.82,14.24 -27.13,50.29 -8.76,78.62 0,0 1.94,6.41 2.17,8.45 0.23,2.04 5.44,0.23 2.72,-12.7 -2.72,-12.92 9.44,-8.72 12.63,-19.18 2.12,-6.96 -2.57,-16.56 5.46,-20.69 7.29,-3.76 12.11,-3.1 19.39,-1.59 10.68,2.21 21.22,3.88 32.21,2.72 -1.23,-5.32 -4.73,-10.35 -7.11,-15.08z"/>
    <path class="fil18" d="M236.42 191.5c0,-0.49 -4.62,-18.14 -4.62,-18.14 0,0 -7.59,3.79 -6.76,11.21 0.44,3.96 3.63,12.36 13.36,13.19l-1.98 -6.27z"/>
    <path class="fil19" d="M231.04 179.52l3.52 12.64c0,0 -8.9,-4.62 -3.52,-12.64z"/>
    <path class="fil20" d="M241.66 149.36c15.83,-3.63 31.83,-6.54 47.9,-8.85 6.06,-0.87 12.14,-1.63 18.23,-2.33 -4.23,-25.01 -26.4,-44.11 -53.19,-44.11 -29.81,0 -53.97,23.62 -53.97,52.76 0,5.21 0.8,10.24 2.24,15 12.71,-4.86 25.31,-9.38 38.78,-12.47z"/>
    <path class="fil21" d="M262.5 144.33c0,0 15.01,-29.79 31.84,-32.06l53.04 9.47c4.04,0.72 7.72,3.12 9.56,6.79 1.76,3.53 1.76,8.07 -5.29,12.17 -14.1,8.19 -89.15,3.64 -89.15,3.64z"/>
    <path class="fil17" d="M288.78 179.93c-0.14,0.42 -0.2,0.86 -0.2,1.28 0.01,1.36 0.62,2.51 1.41,3.36 0.81,0.86 1.82,1.49 2.97,1.8 0.87,0.24 1.72,0.31 2.52,0.31 1.37,-0 2.61,-0.19 3.68,-0.23l0.38 -0.01c0.73,-0 1.46,0.1 2.01,0.29 0.56,0.2 0.92,0.46 1.15,0.79 0.19,0.27 0.28,0.56 0.28,0.96 0.03,0.86 -0.63,2.1 -1.48,2.65 -1.3,0.91 -3.25,1.17 -5.39,1.16l-0.38 0 -0.04 3.64 0.42 0c2.35,-0.01 5.07,-0.19 7.45,-1.8 1.84,-1.29 3.03,-3.37 3.06,-5.65 0,-1.03 -0.28,-2.12 -0.94,-3.05 -0.76,-1.09 -1.85,-1.76 -2.92,-2.13 -1.08,-0.38 -2.18,-0.5 -3.22,-0.5l-0.53 0.01c-1.33,0.06 -2.51,0.23 -3.52,0.23 -0.59,0 -1.1,-0.05 -1.57,-0.18 -0.43,-0.11 -0.93,-0.41 -1.25,-0.76 -0.33,-0.36 -0.45,-0.7 -0.44,-0.89l0.03 -0.18 -3.47 -1.1z"/>
    <path class="fil17" d="M268.01 206.41c5.68,5 14.06,7.34 21.4,7.36l0.24 0c3.62,-0.02 7.23,-0.41 10.58,-1.59 3.34,-1.17 6.43,-3.17 8.81,-6.3l-2.89 -2.21c-1.93,2.52 -4.32,4.08 -7.13,5.07 -2.8,0.99 -6.02,1.36 -9.4,1.38l-0.21 0c-6.56,0.02 -14.29,-2.24 -18.99,-6.44l-2.41 2.72z"/>
    <path class="fil17" d="M266.93 209.07c3.18,-1.06 5.53,-3.87 6.01,-7.18l-3.6 -0.5c-0.24,1.85 -1.74,3.66 -3.53,4.22l1.13 3.46z"/>
    <path class="fil18" d="M433.46 438.94c0,0 -101.71,-33.49 -110.2,-37.52 -6.68,-3.18 -50.16,-57.06 -68.32,-79.78 -5.4,4.36 -10.33,9.36 -15.18,14.27 -8.42,8.54 -17.32,16.42 -26.04,24.65 -3.54,3.33 -6.99,6.75 -10.4,10.21 33.21,29.06 76.02,68.24 88.98,74.08 35.84,16.17 137.66,20.12 137.66,20.12 0,0 4.74,-5.43 6.43,-13.42 2.14,-10.17 -2.93,-12.62 -2.93,-12.62z"/>
    <path class="fil4" d="M240.23 399.8c4.24,-3.84 8.62,-7.37 12.67,-11.42 7.27,-7.27 14.58,-14.5 22.14,-21.47 3.69,-3.4 7.45,-6.72 11.27,-9.96 -18.3,-24.14 -36.36,-49.07 -36.36,-49.07 0,0 -24.5,-36.85 -49.31,-32.93 -21.57,3.4 -31.91,18.41 -36.81,33.4 -5.84,17.86 0.03,37.48 14.54,49.42 14.98,12.34 36.88,30.21 57.74,46.63 1.94,-2.21 3.78,-4.28 4.13,-4.6z"/>
    <path class="fil18" d="M479.84 426.51c3.1,-2.06 6.15,-4.41 9.78,-5.22 3.63,-0.81 8.08,0.47 9.48,3.92 2.18,5.34 -3.96,10.21 -9.27,12.48 -5.31,2.27 -11.83,5.94 -10.99,11.65 0.7,4.72 6.09,6.96 10.72,8.13 17.53,4.42 35.95,5.19 53.97,3.84 -11.76,11.12 -28.46,16.88 -44.63,17.59 -16.17,0.72 -32.23,-2.4 -48.11,-5.52 -8.74,-1.71 -18.02,-3.7 -24.37,-9.95 -9.84,-9.69 -7.97,-25.88 5.92,-26.19 16.61,-0.37 33.24,-1.27 47.49,-10.73z"/>
    <path class="fil22" d="M1247.51 924.22l-466.35 0 0 -899.74c0,-13.52 10.95,-24.47 24.47,-24.47l417.41 0c13.52,0 24.47,10.95 24.47,24.47l0 899.74z"/>
    <polygon class="fil23" points="814.51,895.1 814.51,28.18 1219.61,28.18 1219.61,895.1 "/>
    <path class="fil24" d="M802.21 924.22l304.8 -35.65 0 -834.09c0,0 -118.83,-11.14 -304.8,-33.86l0 903.6z"/>
    <path class="fil25" d="M802.21 389.4l0 -299.13c29.37,22.72 58.3,45.1 86.8,67.15l218 168.65 0 275.58c-96.12,-66.94 -197.57,-137.58 -304.8,-212.26z"/>
    <polygon class="fil26" points="1019.25,505.06 1079.22,504.5 1079.22,401.31 1019.25,400.1 "/>
    <path class="fil15" d="M1035.19 436.34c0,8.17 6.67,14.84 14.86,14.9 8.14,0.06 14.7,-6.43 14.7,-14.51 0,-8.08 -6.56,-14.75 -14.7,-14.9 -8.18,-0.15 -14.86,6.34 -14.86,14.51z"/>
    <path class="fil27" d="M1040.82 468.59c0,-2.86 3.11,-5.17 6.94,-5.16 3.82,0.01 6.91,2.33 6.91,5.18 0,1.97 -1.5,3.67 -3.68,4.54l0 6.48c0,1.33 -1.44,2.42 -3.23,2.42 -1.79,0 -3.24,-1.07 -3.24,-2.41l0 -6.49c-2.19,-0.87 -3.7,-2.57 -3.7,-4.56z"/>
    <polygon class="fil22" points="750.22,929.67 1266.91,929.67 1266.91,902.38 750.22,902.38 "/>
    <path class="fil19" d="M624.08 522.56c-1.38,-2.35 -2.34,-5.71 -0.29,-7.52 1.56,-1.38 3.95,-0.96 5.98,-0.46 15.94,3.95 31.88,7.9 47.82,11.85 1.95,0.48 4.17,1.18 4.97,3.02 0.73,1.67 -0.07,3.69 -1.44,4.9 -1.36,1.21 -3.17,1.76 -4.93,2.22 -18.8,4.89 -41.26,4.47 -52.11,-14.01z"/>
    <path class="fil28" d="M916.59 340.79c-14.91,-19.84 -56.94,-0.77 -56.94,-0.77 0,0 -84.77,11.89 -107.96,12.07 -2.27,13.35 -5.79,26.64 -7.94,39.78 -0.44,2.66 -0.82,5.32 -1.23,7.99 26.38,3.55 95.47,0.95 132.4,3.95 18.5,1.5 36.66,2.66 44.8,-14.02 6.83,-13.99 9.82,-31.74 -3.13,-48.99z"/>
    <path class="fil29" d="M834 402.28c-0.76,-0.01 -1.52,-0.02 -2.29,-0.03 0.76,0.01 1.53,0.02 2.29,0.03l-0 0zm25.51 -62.24c0,0 0.01,0 0.01,-0 -0,0 -0.01,0 -0.01,0zm0.01 -0c0,0 0,0 0.01,0 -0,0 -0,0 -0.01,0zm0.03 -0c0,0 0,0 0.01,0 -0,0 -0,0 -0.01,0zm0.04 -0l0 0 0 0zm0.03 -0c0,0 0,0 0.01,0 -0,0 -0,0 -0.01,0zm0.02 -0c0,0 0.01,0 0.01,0 -0,0 -0.01,0 -0.01,0zm0.02 0l0 0 0 0zm0 0l0 0 0 0zm0 0l0 0 0 0z"/>
    <path class="fil28 str0" d="M834 402.28c-0.76,-0.01 -1.53,-0.02 -2.29,-0.03 -13.28,-0.16 -27.13,-0.2 -40.14,-0.32 6.92,-10.88 17.18,-20.2 26.04,-28.76 10.68,-10.3 20.85,-20.92 31.02,-31.64 6.08,-0.82 10.1,-1.38 10.88,-1.49 0,0 0.01,0 0.01,-0l0 0c0,0 0,0 0.01,0 0.01,0 0.01,0 0.02,-0 0,0 0,0 0.01,0 0.01,0 0.02,-0 0.03,-0l0 0c0.01,0 0.02,-0 0.03,-0 0,0 0,0 0.01,0 0,0 0.01,-0 0.01,-0 0,0 0.01,0 0.01,0 0,0 0,0 0.01,0l0 0 0 0 0 0 0 0 0 0 0 0c0,0 11.1,-5.04 23.92,-7.24 -21,18.25 -38.91,46.8 -49.57,69.5z"/>
    <path class="fil18" d="M880.75 1021.75c-0.23,-0.9 -32.63,-0.9 -32.63,-0.9 0,0 6.84,9.09 -24.94,20.94 -18.01,6.71 -42.31,7.01 -46.68,18.65 -4.38,11.63 1.76,11.93 1.76,11.93 0,0 93.12,1.42 104.72,-2.97 0,0 6.81,-12.41 -2.22,-47.65z"/>
    <path class="fil5" d="M859.32 1051.45c-10.32,3.25 -44.52,5.8 -51.6,-6.07 -14.08,4.62 -27.72,5.72 -31.23,15.06 -4.38,11.63 1.76,11.94 1.76,11.94 0,0 93.12,1.41 104.72,-2.97 0,0 5.38,-9.9 0.16,-37.01 -3.09,7.11 -8.78,14.32 -23.81,19.06z"/>
    <path class="fil30" d="M939.59 655.7c0,0 -33.04,131.97 -38.48,160.68 -5.44,28.71 -1.24,63.11 -2.29,86.85 -2.28,52.03 -15.5,117.08 -15.5,117.08 1.29,13.48 -37.48,14.67 -38.77,1.19 0,0 1.71,-18.86 -0.57,-97.7 -1.12,-38.82 -18.85,-68.78 -21.71,-121.12 -2.86,-52.34 25.51,-189.61 25.51,-189.61 0,0 25.02,-33.5 58.52,-22.43 33.5,11.06 33.3,65.07 33.3,65.07z"/>
    <path class="fil18" d="M983.6 1024.23c0,0 -8.38,11 -34.83,6.29 0,0 7.15,15.32 -20.16,30.11 -11.64,6.3 -43.21,17.54 -44.78,28.02 -1.57,10.47 18.85,13.35 42.42,11.52 23.57,-1.83 58.92,-20.16 65.47,-26.97 6.54,-6.81 -8.12,-48.97 -8.12,-48.97z"/>
    <path class="fil5" d="M989.04 1042.03c1.22,4.52 -5.93,13.08 -8.71,16.15 -4.77,5.28 -10.9,9.26 -17.39,12.09 -13.82,6.02 -33.23,10.74 -48.31,8.13 -2.24,-0.39 -4.66,-0.96 -6.55,-2.3 -0.36,-0.25 -4.09,-3.95 -3.2,-4.4 -10.53,5.26 -20.2,11.25 -21.06,16.94 -1.57,10.47 18.85,13.35 42.42,11.52 23.57,-1.83 58.92,-20.16 65.47,-26.97 3.67,-3.82 0.66,-18.78 -2.68,-31.17z"/>
    <path class="fil31" d="M989.95 640.12c16.28,66.85 -29.14,85.7 -16.22,194.52 4.95,41.69 18.95,57.86 17.17,172l-1.74 24.72c2.38,11.94 -39.4,12.34 -41.78,0.41 0,0 -0.59,-35.97 -13.48,-88.94 -5.91,-24.26 -23.49,-64.55 -36.22,-112.75 -15.07,-57.06 -16.83,-142.09 -19.43,-188.54 -4.65,-83.49 93.85,-74.7 111.7,-1.43z"/>
    <path class="fil31" d="M925.63 686.95c-3,0 -6,-0.03 -9,-0.1 -12.13,-0.27 -24.24,-1.3 -36.29,-2.79 -0.47,-9.33 -0.87,-18.17 -1.26,-26.3 0.91,0.08 1.83,0.14 2.74,0.19 7.51,0.42 15.04,0.64 22.58,0.64 8.83,0 17.65,-0.3 26.44,-0.92 16.19,-1.15 41.75,-1.61 61.26,-6.92 1.8,11.36 1.74,21.35 0.58,30.85 -1.2,0.19 -2.4,0.4 -3.59,0.57 -20.99,3.11 -42.23,4.77 -63.46,4.77z"/>
    <path class="fil28" d="M845.28 544.85c-5.15,28.58 -12.45,62.26 -19.98,98.67 18.32,6.84 36.73,13.33 56.52,14.44 16.3,0.92 32.73,0.88 49.02,-0.28 19.86,-1.41 53.81,-1.79 73.39,-11.33 -4.31,-30.08 -14.02,-54.93 -14.96,-59.83 -5.75,-30.01 -19.43,-69.97 -12.47,-99.72 13.71,-58.58 19.87,-80.59 13.71,-107.2 -11.84,-51.11 -64.72,-65.03 -64.72,-65.03 -44.86,-2.07 -88.01,72.17 -99.38,106.31 -8.5,25.49 24.51,49.42 26.05,67.38 0.85,9.84 -5.47,46.8 -7.18,56.6z"/>
    <path class="fil32" d="M844.83 547.3c0.14,-0.77 0.3,-1.58 0.44,-2.35 -0.14,0.78 -0.29,1.56 -0.43,2.35 0,0 -0,0 -0.01,0zm1.28 -7.22c1.41,-8.25 3.68,-22.16 5.11,-33.84 0,0 0.01,-0 0.01,-0 -1.43,11.67 -3.71,25.59 -5.12,33.84z"/>
    <path class="fil28" d="M844.83 547.3c0.15,-0.79 0.29,-1.57 0.43,-2.35 0,-0.03 0.01,-0.07 0.02,-0.1 0.21,-1.21 0.49,-2.83 0.82,-4.77 1.41,-8.25 3.69,-22.17 5.12,-33.84 11.87,-5.16 24.18,-9.55 35.4,-16.01 22.35,-12.88 43.52,-28.63 63.94,-44.34 14.28,-10.99 28.17,-22.46 41.76,-34.25 -0.92,9.46 -2.93,20.14 -5.84,33.38 -9.88,19.31 -22.45,37.1 -37.41,51.91 -29.16,28.88 -65.31,44.81 -104.25,50.36z"/>
    <path class="fil18" d="M670.17 496.07c-3.47,-0.85 -8.32,-3.77 -9.74,-0.49 -2.2,5.1 3.92,9.88 8.98,12.17 5.06,2.28 10.95,5.93 10.03,11.41 -0.76,4.51 -6.72,7.95 -11.19,8.98 -13.38,3.1 -33.16,-3.38 -46.93,-3.94 -3.65,-0.15 -5.19,2.02 -4.25,5.26 11.09,10.9 27.03,16.74 42.55,17.73 15.52,0.99 31.01,-1.71 46.33,-4.4 8.43,-1.48 23.51,-4.13 29.72,-10.01 9.63,-9.13 7.89,-23.38 -5.31,-21.38 -28.95,4.4 -56.72,-14.46 -60.19,-15.31z"/>
    <path class="fil28" d="M729.08 510.45c0,0 108.46,-24.94 116.91,-28.75 6.66,-3.01 55.93,-55.54 74.29,-77.63 29.44,-35.37 54.93,-34.67 64.36,-23.52 10.69,12.64 15.19,37.46 -27.02,67 -33.34,28.06 -76.37,65.92 -89.28,71.45 -35.7,15.29 -136.31,17.23 -136.31,17.23 0,0 -4.57,-5.46 -6.08,-13.37 -1.93,-10.08 3.14,-12.41 3.14,-12.41z"/>
    <path class="fil16" d="M883.03 381.45c0,0 19.41,5.46 14.56,26.06 -3.41,14.47 58.22,-58.28 52.16,-80.3 0,0 -18.19,-21.07 -38.21,-14.59 0,0 -50.07,21.04 -51.25,78.23 -0.02,0.93 1.85,1.95 2.43,1.21 4.32,-5.56 7.58,-16.37 20.31,-10.61z"/>
    <path class="fil17" d="M1008.43 184.09c7.63,15.69 5.05,33.78 3.5,50.98 -1.54,17.2 -1.36,35.99 10.38,49.45 4.7,5.39 11.52,11 9.75,17.74 -1.57,5.97 -9.34,8.97 -16.15,9.13 -15.77,0.37 -29.89,-9.52 -37.45,-21.79 -7.57,-12.27 -9.75,-26.63 -11.28,-40.67 -1.54,-14.03 -2.63,-28.36 -8.34,-41.44 -5.22,-11.96 -31.38,-45.36 -3.56,-50.41 21.12,-3.83 45.02,10.29 53.15,27z"/>
    <path class="fil33" d="M937.43 335.84c0,0 -27.87,52.02 -54.29,41.68 -12.63,-9.19 15.23,-46.44 15.23,-46.44 1.53,-4.59 1.31,-31.16 -2.51,-39.86 4.73,-7.29 33.34,-8.79 41.58,1.02 -3.72,14.25 0,43.59 0,43.59z"/>
    <path class="fil19" d="M925.51 307.58c-5.87,4.4 -12.92,7.12 -19.91,9.19 -2.1,0.63 -4.26,1.19 -6.44,1.67 0.52,-8.16 -0.95,-18.76 -3.31,-27.23 4.73,-7.29 33.34,-8.79 41.58,1.02 -0.09,0.33 -0.17,0.68 -0.24,1.03 -3.23,5.31 -6.59,10.5 -11.68,14.31z"/>
    <path class="fil18" d="M947.15 210.12c-10.45,-13.51 -4.67,-22.44 -23.06,-23.13 -0.61,-0.03 -1.25,-0.01 -1.89,-0.01 -0.63,-0.05 -1.27,-0.11 -1.88,-0.13 -18.39,-0.69 -25.37,-1.91 -37.39,10.37 -15.55,15.89 -11.38,48.21 -11.87,58.51 -1.39,29.35 4.54,47.11 24.57,49.02 11.1,1.99 25.04,-2.87 41.79,-12.52 12.4,-9.41 19.38,-17.55 20.89,-32.74 1.02,-10.28 -4.64,-40.93 -11.17,-49.38z"/>
    <path class="fil34" d="M899.67 246.42c0,2.3 1.22,4.16 2.72,4.16 1.51,0 2.73,-1.86 2.73,-4.16 0,-2.3 -1.22,-4.16 -2.73,-4.16 -1.5,0 -2.72,1.86 -2.72,4.16z"/>
    <path class="fil34" d="M875.21 243.36c0,2.3 1.22,4.16 2.73,4.16 1.5,0 2.72,-1.87 2.72,-4.16 0,-2.3 -1.22,-4.17 -2.72,-4.17 -1.51,0 -2.73,1.87 -2.73,4.17z"/>
    <path class="fil34" d="M901.3 234.39c1.13,0.23 2.31,0.31 3.36,0.46 1.07,0.13 2.12,0.28 3.15,0.66 1.02,0.38 2.04,0.84 3.02,1.48 0.52,0.27 0.96,0.69 1.5,0.99 0.5,0.37 0.95,0.78 1.5,1.15l0.15 0.1c0.6,0.4 1.42,0.24 1.82,-0.36 0.28,-0.41 0.29,-0.92 0.08,-1.33 -0.67,-1.28 -1.5,-2.52 -2.58,-3.59 -1.07,-1.08 -2.39,-1.95 -3.83,-2.62 -1.46,-0.61 -3.06,-1.01 -4.67,-0.96 -1.62,0.06 -3.14,0.49 -4.51,1.64 -0.56,0.47 -0.63,1.3 -0.17,1.86l0.75 0.45 0.43 0.08z"/>
    <path class="fil34" d="M883.98 230.07c-0.01,-1.36 -1.03,-2.61 -2.19,-3.21 -1.19,-0.62 -2.48,-0.71 -3.64,-0.61 -2.36,0.24 -4.4,1.58 -5.54,3.38 -0.39,0.62 -0.2,1.45 0.42,1.84 0.37,0.23 0.8,0.27 1.18,0.13l0.15 -0.05c1.51,-0.56 2.86,-0.83 4.07,-0.81 0.6,-0.01 1.12,0.14 1.57,0.24 0.46,0.1 0.87,0.08 1.69,0.3l0.56 0.15c0.74,0.19 1.49,-0.25 1.69,-0.99l0.04 -0.36z"/>
    <path class="fil34" d="M883.58 266.47l0.69 -0.03 -0.23 -2.61c-2.02,0.18 -4.6,-0.89 -5.96,-2.48 -0.66,-0.78 -0.99,-1.6 -0.98,-2.46 4.05,-0.95 8.63,-4.17 9.63,-8.27l-2.54 -0.62c-0.8,3.26 -5.01,5.99 -8.44,6.49l-0.87 0.13 -0.21 0.85c-0.49,1.95 0.01,3.94 1.42,5.58 1.76,2.07 4.76,3.42 7.49,3.42z"/>
    <path class="fil34" d="M909.46 276.59l1.83 -1.86c-0.2,-0.22 -0.43,-0.37 -1.31,-0.9 -0.99,-0.59 -2.64,-1.59 -3.44,-2.35 -0.94,-0.89 -1.7,-2 -2.44,-3.07 -0.36,-0.52 -0.7,-1.02 -1.04,-1.46l-2.07 1.6c0.31,0.4 0.62,0.86 0.95,1.34 0.77,1.13 1.65,2.4 2.79,3.48 1.01,0.96 2.74,2 3.89,2.7 0.39,0.24 0.7,0.41 0.83,0.52z"/>
    <path class="fil34" d="M887.7 277.91c5.88,0 12.19,-1.82 17.18,-3.26l1.43 -0.41 -0.72 -2.51 -1.44 0.41c-8.86,2.56 -22.25,6.42 -28.07,-2.07l-2.16 1.48c3.3,4.82 8.35,6.37 13.77,6.37z"/>
    <path class="fil17" d="M953.12 187.99c0.77,3.2 -7.84,9.5 -10.1,11.63 -5.54,5.24 -16.09,10.94 -21.21,11.12 -14.72,0.52 -19.86,-1.66 -29.43,-2.05 -11.32,-0.47 -20.3,1.66 -20.17,13.97 -4.49,-10.98 -5.4,-29.81 2.31,-39.78 12.44,-16.08 46.74,-22.43 64.67,-13.43 6.78,3.4 11.97,10.42 13.92,18.54z"/>
    <path class="fil17" d="M954.33 250.19c-7.44,-3.46 -14.43,-11.42 -16.04,-20.04 -1.14,-6.11 -4.43,-18.03 -2.77,-24 2.3,-8.23 12.58,-10.52 15.59,-18.81 6.72,-4.03 14.45,3.08 18.94,7.55 7.25,7.24 11.23,16.61 12.37,26.74 1.73,15.41 0.52,34.2 -9.75,45.99 -3.6,4.14 -14.87,13.17 -23.58,14.08 1.09,0.22 14.57,-35.13 5.23,-31.51z"/>
    <path class="fil18" d="M951.87 249.86c1.27,-0.96 3.99,-1.75 5.55,-1.75 4.81,0 10.07,2.2 10.07,8.61 0,6.41 -4.14,11.73 -11.8,13.49 -1.66,0.38 -4.5,0.34 -5.84,-0.79 0.63,-6.79 0,-8.21 2.03,-19.55z"/>
    <path class="fil35" d="M956.9 253l0.49 -0.05c2.74,0 5.75,1.25 5.75,4.92 0,3.67 -2.36,6.7 -6.74,7.7l-0.52 0.07c3.23,-7.76 3.23,-8.27 1.02,-12.64z"/>
    <path class="fil17" d="M935.44 207.13c-10.35,26.99 18.49,67.3 18.49,67.3l0.1 -32.26 -18.59 -35.04z"/>
    <path class="fil17" d="M954.01 306.65c3.87,-8.45 0.49,-17.59 -1.87,-22.28 -1.98,-3.94 -4.52,-7.58 -6.97,-11.1 -1.67,-2.4 -3.4,-4.89 -4.92,-7.41 -11.82,-19.72 -11.77,-46.18 0.11,-65.86l-2.34 -1.42c-12.39,20.52 -12.44,48.12 -0.12,68.68 1.56,2.61 3.32,5.13 5.02,7.57 2.4,3.44 4.87,7 6.77,10.76 3.64,7.25 4.31,14.51 1.83,19.92l2.48 1.14z"/>
    <path class="fil19" d="M674.31 240.47c-7.17,-10.87 -14.51,-21.92 -24.62,-30.13 -10.1,-8.21 -23.61,-13.29 -36.28,-10.28 -9.71,2.3 -18.81,11.12 -17.38,21 1.07,7.38 5.93,16.26 13.33,17.23 32.31,4.28 30.19,28.84 59.9,40.66 2.97,1.18 2.58,1.02 5.76,1.21 6.35,0.39 13.84,-8.39 13.68,-15.39 -0.18,-7.79 -10.25,-18.03 -14.4,-24.31z"/>
    <path class="fil26" d="M635.01 221.32c-11.83,14.88 -21.7,28.26 -29.49,40.75 -19.28,-18.48 -49.79,-38.67 -90.2,-64.82 11.76,-8.56 25.84,-18.04 42.15,-29.06 36.82,20.79 62.95,37.07 77.53,53.13z"/>
    <path class="fil26" d="M524.99 197.29l1.01 1.35c9.27,-6.95 19.9,-14.51 31.85,-22.93l-0.97 -1.38 -0.84 1.46c31.73,18.37 55.14,33.31 69.49,47.55l1.19 -1.2 -1.31 -1.06c-8.98,11.06 -16.79,21.3 -23.39,30.99l1.39 0.95 1.14 -1.24c-17.9,-16.35 -44.38,-33.98 -78.64,-55.91l-0.91 1.42 1.01 1.35 -1.01 -1.35 -0.91 1.42c34.23,21.91 60.61,39.5 78.19,55.56l1.44 1.31 1.1 -1.61c6.52,-9.58 14.28,-19.74 23.22,-30.76l0.96 -1.19 -1.08 -1.07c-14.82,-14.67 -38.38,-29.65 -70.17,-48.07l-0.93 -0.54 -0.88 0.62c-11.96,8.42 -22.61,16 -31.93,22.99l-1.95 1.46 2.05 1.31 0.91 -1.42z"/>
    <path class="fil26" d="M593.37 206.36c1.1,6.69 -3.9,14.12 -11.32,16.09 -7.42,1.98 -15.68,-2.3 -18.33,-9.03 -2.65,-6.75 2.55,-13.26 11.51,-15.19 8.97,-1.91 17.03,1.44 18.14,8.13z"/>
    <path class="fil26" d="M647.67 224.56c-15.5,11.02 -28.68,21.13 -39.63,30.97 -13.4,-23.1 -37.1,-50.97 -68.68,-87.3 13.68,-4.96 29.83,-10.16 48.56,-16.23 29.61,30.19 50.19,53.08 59.75,72.56z"/>
    <path class="fil26" d="M548.64 170.96l0.6 1.58c10.83,-4.11 23.13,-8.42 36.95,-13.19l-0.55 -1.59 -1.22 1.17c25.38,26.45 43.73,47.3 53.57,64.96l1.47 -0.82 -0.96 -1.38c-11.69,8.14 -22.04,15.8 -31.07,23.29l1.08 1.3 1.44 -0.88c-12.67,-20.68 -33.21,-44.96 -60.05,-75.53l-1.27 1.11 0.6 1.58 -0.6 -1.58 -1.27 1.11c26.82,30.54 47.28,54.76 59.7,75.07l1.02 1.66 1.5 -1.24c8.92,-7.4 19.2,-15.01 30.84,-23.12l1.25 -0.87 -0.74 -1.33c-10.17,-18.21 -28.66,-39.13 -54.08,-65.65l-0.75 -0.78 -1.02 0.35c-13.83,4.77 -26.16,9.09 -37.05,13.22l-2.27 0.86 1.6 1.83 1.27 -1.11z"/>
    <path class="fil26" d="M615.3 202.96c-0.79,6.73 -7.66,12.48 -15.33,12.31 -7.68,-0.15 -14.43,-6.55 -15.11,-13.76 -0.67,-7.22 6.13,-12.03 15.28,-11.4 9.14,0.65 15.95,6.11 15.16,12.84z"/>
    <path class="fil18" d="M629.29 215.4c-2.5,-0.56 -6.38,0.23 -7.32,2.61 -1.21,3.03 0.13,5.43 1.82,6.97 7.07,6.47 17.13,5.46 24.26,19.41 1.72,3.38 3.49,24.64 25.77,34.19 1.47,0.63 20.89,2.38 16.6,-11.82 -6.6,-21.83 -16.37,-32.98 -24.11,-38.21 -5.22,-3.53 -11.91,-4.67 -17.21,-6.9 -6.61,-2.78 -12.82,-4.68 -19.82,-6.25z"/>
    <path class="fil28 str0" d="M743.08 399.06c0.84,-1.34 1.65,-2.7 2.5,-4.04 7.55,-12 16.69,-23.65 24.5,-35.88 -0.61,-0.33 -1.12,-0.64 -1.41,-0.9 -6.91,-6.18 -77.61,-92.56 -77.61,-92.56 0,0 -4.18,-3.69 -12.61,2.16 -6.63,4.59 -9.77,10.98 -9.77,10.98 0,0 42.55,91.19 70.99,117.64 0.85,0.79 2.01,1.66 3.4,2.6z"/>
   </g>
  </g>
 </g>
</svg>
